<?xml version="1.0" encoding="UTF-8" standalone="no"?>
<!DOCTYPE svg PUBLIC "-//W3C//DTD SVG 1.1//EN"
 "http://www.w3.org/Graphics/SVG/1.1/DTD/svg11.dtd">
<!-- Generated by graphviz version 14.1.3 (0)
 -->
<!-- Pages: 1 -->
<svg width="598pt" height="839pt"
 viewBox="0.00 0.00 598.00 839.00" xmlns="http://www.w3.org/2000/svg" xmlns:xlink="http://www.w3.org/1999/xlink">
<g id="graph0" class="graph" transform="scale(0.986799 0.986799) rotate(0) translate(4 846)">
<polygon fill="white" stroke="none" points="-4,4 -4,-846 602,-846 602,4 -4,4"/>
<!-- 1 -->
<g id="node1" class="node">
<title>1</title>
<text xml:space="preserve" text-anchor="middle" x="277.61" y="-762.56" font-family="Times,serif" font-style="italic" font-size="37.44">Teoria dell&#39;Informazione</text>
</g>
<!-- 3 -->
<g id="node2" class="node">
<title>3</title>
<text xml:space="preserve" text-anchor="middle" x="84.61" y="-46.56" font-family="Times,serif" font-style="italic" font-size="37.44">α + β = π</text>
</g>
<!-- 1&#45;&gt;3 -->
<g id="edge1" class="edge">
<title>1&#45;&gt;3</title>
<path fill="none" stroke="black" d="M271.73,-756.24C244.04,-653.8 126.62,-219.42 93.4,-96.52"/>
<polygon fill="black" stroke="black" points="90.86,-87.12 97.81,-95.59 91.84,-90.77 93.47,-96.77 93.47,-96.77 93.47,-96.77 91.84,-90.77 89.12,-97.94 90.86,-87.12"/>
</g>
<!-- 2 -->
<g id="node3" class="node">
<title>2</title>
<text xml:space="preserve" text-anchor="middle" x="471.61" y="-46.56" font-family="Times,serif" font-style="italic" font-size="37.44">/(1)(n) sum x_i</text>
</g>
<!-- 1&#45;&gt;2 -->
<g id="edge2" class="edge">
<title>1&#45;&gt;2</title>
<path fill="none" stroke="black" d="M283.52,-756.24C311.36,-653.8 429.38,-219.42 462.77,-96.52"/>
<polygon fill="black" stroke="black" points="465.33,-87.12 467.05,-97.95 464.34,-90.76 462.71,-96.77 462.71,-96.77 462.71,-96.77 464.34,-90.76 458.36,-95.59 465.33,-87.12"/>
</g>
</g>
</svg>
