<?xml version="1.0" encoding="UTF-8" standalone="no"?>
<!DOCTYPE svg PUBLIC "-//W3C//DTD SVG 1.1//EN"
 "http://www.w3.org/Graphics/SVG/1.1/DTD/svg11.dtd">
<!-- Generated by graphviz version 14.1.3 (0)
 -->
<!-- Pages: 1 -->
<svg width="598pt" height="840pt"
 viewBox="0.00 0.00 598.00 840.00" xmlns="http://www.w3.org/2000/svg" xmlns:xlink="http://www.w3.org/1999/xlink">
<g id="graph0" class="graph" transform="scale(0.520375 0.520375) rotate(0) translate(4 1610.8)">
<polygon fill="white" stroke="none" points="-4,4 -4,-1610.8 1145.17,-1610.8 1145.17,4 -4,4"/>
<g id="clust1" class="cluster">
<title>cluster_3</title>
<polygon fill="#f5f5f5" stroke="#bbbbbb" points="8,-8.93 8,-1101.37 674,-1101.37 674,-8.93 8,-8.93"/>
<text xml:space="preserve" text-anchor="middle" x="341" y="-1083.12" font-family="Times,serif" font-size="15.00">Startup AI (Acquired)</text>
</g>
<!-- 2 -->
<g id="node1" class="node">
<title>2</title>
<ellipse fill="#7be9f8" stroke="black" stroke-width="6.48" cx="368" cy="-795.93" rx="241.48" ry="241.48"/>
<text xml:space="preserve" text-anchor="middle" x="368" y="-779.49" font-family="Times,serif" font-style="italic" font-size="37.44">Startup AI (Acquired)</text>
</g>
<!-- 5 -->
<g id="node2" class="node">
<title>5</title>
<ellipse fill="#7be9f8" stroke="black" stroke-width="6.48" cx="160" cy="-178.93" rx="144.43" ry="144.43"/>
<text xml:space="preserve" text-anchor="middle" x="160" y="-162.49" font-family="Times,serif" font-style="italic" font-size="37.44">Core Engine</text>
</g>
<!-- 2&#45;&gt;5 -->
<g id="edge3" class="edge">
<title>2&#45;&gt;5</title>
<path fill="none" stroke="#000000" stroke-width="2.5" d="M289.96,-564.18C263.64,-486.37 234.96,-401.55 211.25,-331.45"/>
<polygon fill="#000000" stroke="#000000" stroke-width="2.5" points="214.61,-330.47 208.09,-322.12 207.98,-332.72 214.61,-330.47"/>
</g>
<!-- 4 -->
<g id="node3" class="node">
<title>4</title>
<ellipse fill="#7be9f8" stroke="black" stroke-width="6.48" cx="550" cy="-178.93" rx="116.32" ry="116.32"/>
<text xml:space="preserve" text-anchor="middle" x="550" y="-162.49" font-family="Times,serif" font-style="italic" font-size="37.44">Dev Team</text>
</g>
<!-- 2&#45;&gt;4 -->
<g id="edge4" class="edge">
<title>2&#45;&gt;4</title>
<path fill="none" stroke="black" d="M437.07,-561.55C462.94,-474.1 491.34,-378.15 513.18,-304.34"/>
<polygon fill="black" stroke="black" points="516.01,-294.78 517.49,-305.65 514.94,-298.41 513.17,-304.37 513.17,-304.37 513.17,-304.37 514.94,-298.41 508.86,-303.09 516.01,-294.78"/>
</g>
<!-- 1 -->
<g id="node4" class="node">
<title>1</title>
<ellipse fill="#7be9f8" stroke="black" stroke-width="6.48" cx="654" cy="-1429.93" rx="158.75" ry="158.75"/>
<text xml:space="preserve" text-anchor="middle" x="654" y="-1413.49" font-family="Times,serif" font-style="italic" font-size="37.44">Holding Corp</text>
</g>
<!-- 1&#45;&gt;2 -->
<g id="edge2" class="edge">
<title>1&#45;&gt;2</title>
<path fill="none" stroke="black" d="M587.67,-1282.35C553.62,-1207.11 511.34,-1113.68 472.99,-1028.94"/>
<polygon fill="black" stroke="black" points="468.96,-1020.03 477.18,-1027.28 470.52,-1023.47 473.08,-1029.14 473.08,-1029.14 473.08,-1029.14 470.52,-1023.47 468.98,-1030.99 468.96,-1020.03"/>
</g>
<!-- 6 -->
<g id="node5" class="node">
<title>6</title>
<ellipse fill="#7be9f8" stroke="black" stroke-width="6.48" cx="940" cy="-795.93" rx="201.17" ry="201.17"/>
<text xml:space="preserve" text-anchor="middle" x="940" y="-779.49" font-family="Times,serif" font-style="italic" font-size="37.44">R&amp;D Department</text>
</g>
<!-- 1&#45;&gt;6 -->
<g id="edge1" class="edge">
<title>1&#45;&gt;6</title>
<path fill="none" stroke="black" d="M720.33,-1282.35C759.38,-1196.06 809.25,-1085.85 851.61,-992.26"/>
<polygon fill="black" stroke="black" points="855.7,-983.21 855.68,-994.17 854.15,-986.65 851.58,-992.32 851.58,-992.32 851.58,-992.32 854.15,-986.65 847.48,-990.46 855.7,-983.21"/>
</g>
</g>
</svg>
