<?xml version="1.0" encoding="UTF-8" standalone="no"?>
<!DOCTYPE svg PUBLIC "-//W3C//DTD SVG 1.1//EN"
 "http://www.w3.org/Graphics/SVG/1.1/DTD/svg11.dtd">
<!-- Generated by graphviz version 14.1.3 (0)
 -->
<!-- Pages: 1 -->
<svg width="839pt" height="598pt"
 viewBox="0.00 0.00 839.00 598.00" xmlns="http://www.w3.org/2000/svg" xmlns:xlink="http://www.w3.org/1999/xlink">
<g id="graph0" class="graph" transform="scale(0.789673 0.789673) rotate(0) translate(4 753.28)">
<polygon fill="white" stroke="none" points="-4,4 -4,-753.28 1059,-753.28 1059,4 -4,4"/>
<g id="clust1" class="cluster">
<title>cluster_3</title>
<polygon fill="#f5f5f5" stroke="#bbbbbb" points="8,-219.56 8,-560.34 474,-560.34 474,-219.56 8,-219.56"/>
<text xml:space="preserve" text-anchor="middle" x="241" y="-542.09" font-family="Times,serif" font-size="15.00">Frontend</text>
</g>
<g id="clust2" class="cluster">
<title>cluster_8</title>
<polygon fill="#f5f5f5" stroke="#bbbbbb" points="559,-219.56 559,-560.34 1047,-560.34 1047,-219.56 559,-219.56"/>
<text xml:space="preserve" text-anchor="middle" x="803" y="-542.09" font-family="Times,serif" font-size="15.00">Infrastructure</text>
</g>
<!-- 2 -->
<g id="node1" class="node">
<title>2</title>
<polygon fill="#eeeeee" stroke="black" stroke-width="6.48" points="465,-513.12 269,-513.12 269,-466.88 465,-466.88 465,-513.12"/>
<text xml:space="preserve" text-anchor="middle" x="367" y="-473.56" font-family="Courier,monospace" font-size="37.44">Frontend</text>
</g>
<!-- 5 -->
<g id="node2" class="node">
<title>5</title>
<polygon fill="#eeeeee" stroke="black" stroke-width="6.48" points="212,-283.12 16,-283.12 16,-236.88 212,-236.88 212,-283.12"/>
<text xml:space="preserve" text-anchor="middle" x="114" y="-243.56" font-family="Courier,monospace" font-size="37.44">React UI</text>
</g>
<!-- 2&#45;&gt;5 -->
<g id="edge6" class="edge">
<title>2&#45;&gt;5</title>
<path fill="none" stroke="black" d="M338.96,-463.73C292.77,-422.1 200.75,-339.18 149.88,-293.33"/>
<polygon fill="black" stroke="black" points="142.69,-286.85 153.13,-290.2 145.5,-289.38 150.12,-293.55 150.12,-293.55 150.12,-293.55 145.5,-289.38 147.1,-296.89 142.69,-286.85"/>
</g>
<!-- 4 -->
<g id="node3" class="node">
<title>4</title>
<polygon fill="#eeeeee" stroke="black" stroke-width="6.48" points="465.5,-283.12 314.5,-283.12 314.5,-236.88 465.5,-236.88 465.5,-283.12"/>
<text xml:space="preserve" text-anchor="middle" x="390" y="-243.56" font-family="Courier,monospace" font-size="37.44">Assets</text>
</g>
<!-- 2&#45;&gt;4 -->
<g id="edge7" class="edge">
<title>2&#45;&gt;4</title>
<path fill="none" stroke="black" d="M369.55,-463.73C373.64,-423.22 381.67,-343.59 386.36,-297.1"/>
<polygon fill="black" stroke="black" points="387.35,-287.25 390.83,-297.65 386.97,-291.01 386.35,-297.2 386.35,-297.2 386.35,-297.2 386.97,-291.01 381.87,-296.75 387.35,-287.25"/>
</g>
<!-- 6 -->
<g id="node5" class="node">
<title>6</title>
<polygon fill="#eeeeee" stroke="black" stroke-width="6.48" points="597,-53.12 491,-53.12 491,-6.88 597,-6.88 597,-53.12"/>
<text xml:space="preserve" text-anchor="middle" x="544" y="-13.56" font-family="Courier,monospace" font-size="37.44">User</text>
</g>
<!-- 5&#45;&gt;6 -->
<g id="edge8" class="edge">
<title>5&#45;&gt;6</title>
<path fill="none" stroke="black" d="M161.66,-233.73C241.27,-191.52 401,-106.83 486.64,-61.41"/>
<polygon fill="black" stroke="black" points="495.38,-56.78 488.65,-65.44 492.04,-58.55 486.54,-61.47 486.54,-61.47 486.54,-61.47 492.04,-58.55 484.43,-57.49 495.38,-56.78"/>
</g>
<!-- 1 -->
<g id="node4" class="node">
<title>1</title>
<polygon fill="#eeeeee" stroke="black" stroke-width="6.48" points="738,-742.12 362,-742.12 362,-695.88 738,-695.88 738,-742.12"/>
<text xml:space="preserve" text-anchor="middle" x="550" y="-702.56" font-family="Courier,monospace" font-size="37.44">Sistema Centrale</text>
</g>
<!-- 1&#45;&gt;2 -->
<g id="edge2" class="edge">
<title>1&#45;&gt;2</title>
<path fill="none" stroke="black" d="M529.72,-692.84C496.74,-651.93 431.46,-570.96 394.39,-524.98"/>
<polygon fill="black" stroke="black" points="388.14,-517.22 397.92,-522.18 390.51,-520.17 394.42,-525.01 394.42,-525.01 394.42,-525.01 390.51,-520.17 390.91,-527.83 388.14,-517.22"/>
</g>
<!-- 7 -->
<g id="node6" class="node">
<title>7</title>
<polygon fill="#eeeeee" stroke="black" stroke-width="6.48" points="898.5,-513.12 567.5,-513.12 567.5,-466.88 898.5,-466.88 898.5,-513.12"/>
<text xml:space="preserve" text-anchor="middle" x="733" y="-473.56" font-family="Courier,monospace" font-size="37.44">Infrastructure</text>
</g>
<!-- 1&#45;&gt;7 -->
<g id="edge1" class="edge">
<title>1&#45;&gt;7</title>
<path fill="none" stroke="black" d="M570.28,-692.84C603.26,-651.93 668.54,-570.96 705.61,-524.98"/>
<polygon fill="black" stroke="black" points="711.86,-517.22 709.09,-527.83 709.49,-520.17 705.58,-525.01 705.58,-525.01 705.58,-525.01 709.49,-520.17 702.08,-522.18 711.86,-517.22"/>
</g>
<!-- 10 -->
<g id="node7" class="node">
<title>10</title>
<polygon fill="#eeeeee" stroke="black" stroke-width="6.48" points="808.5,-283.12 567.5,-283.12 567.5,-236.88 808.5,-236.88 808.5,-283.12"/>
<text xml:space="preserve" text-anchor="middle" x="688" y="-243.56" font-family="Courier,monospace" font-size="37.44">PostgreSQL</text>
</g>
<!-- 7&#45;&gt;10 -->
<g id="edge3" class="edge">
<title>7&#45;&gt;10</title>
<path fill="none" stroke="black" d="M728.01,-463.73C720,-423.13 704.23,-343.25 695.07,-296.8"/>
<polygon fill="black" stroke="black" points="693.18,-287.23 699.53,-296.17 693.91,-290.94 695.11,-297.04 695.11,-297.04 695.11,-297.04 693.91,-290.94 690.7,-297.91 693.18,-287.23"/>
</g>
<!-- 9 -->
<g id="node8" class="node">
<title>9</title>
<polygon fill="#eeeeee" stroke="black" stroke-width="6.48" points="1039.25,-283.12 910.75,-283.12 910.75,-236.88 1039.25,-236.88 1039.25,-283.12"/>
<text xml:space="preserve" text-anchor="middle" x="975" y="-243.56" font-family="Courier,monospace" font-size="37.44">Redis</text>
</g>
<!-- 7&#45;&gt;9 -->
<g id="edge4" class="edge">
<title>7&#45;&gt;9</title>
<path fill="none" stroke="black" d="M759.82,-463.73C803.91,-422.19 891.66,-339.52 940.38,-293.62"/>
<polygon fill="black" stroke="black" points="947.54,-286.87 943.35,-297.01 944.79,-289.47 940.26,-293.73 940.26,-293.73 940.26,-293.73 944.79,-289.47 937.17,-290.45 947.54,-286.87"/>
</g>
<!-- 9&#45;&gt;6 -->
<g id="edge5" class="edge">
<title>9&#45;&gt;6</title>
<path fill="none" stroke="black" d="M927.23,-233.73C847.43,-191.52 687.34,-106.83 601.49,-61.41"/>
<polygon fill="black" stroke="black" points="592.73,-56.78 603.68,-57.48 596.08,-58.55 601.57,-61.46 601.57,-61.46 601.57,-61.46 596.08,-58.55 599.47,-65.43 592.73,-56.78"/>
</g>
</g>
</svg>
