<?xml version="1.0" encoding="UTF-8" standalone="no"?>
<!DOCTYPE svg PUBLIC "-//W3C//DTD SVG 1.1//EN"
 "http://www.w3.org/Graphics/SVG/1.1/DTD/svg11.dtd">
<!-- Generated by graphviz version 14.1.2 (0)
 -->
<!-- Pages: 1 -->
<svg width="1080pt" height="1080pt"
 viewBox="0.00 0.00 1080.00 1080.00" xmlns="http://www.w3.org/2000/svg" xmlns:xlink="http://www.w3.org/1999/xlink">
<g id="graph0" class="graph" transform="scale(0.907602 0.907602) rotate(0) translate(4 1185.95)">
<polygon fill="white" stroke="none" points="-4,4 -4,-1185.95 1185.95,-1185.95 1185.95,4 -4,4"/>
<!-- 1 -->
<g id="node1" class="node">
<title>1</title>
<ellipse fill="#e1f5fe" stroke="#01579b" stroke-width="4.5" cx="215.95" cy="-371.63" rx="216.02" ry="216.02"/>
<text xml:space="preserve" text-anchor="middle" x="215.95" y="-360.43" font-family="Helvetica,sans-Serif" font-size="26.00">CL&#45;OBELISK: Core Logic</text>
</g>
<!-- 12 -->
<g id="node2" class="node">
<title>12</title>
<ellipse fill="#e1f5fe" stroke="#01579b" stroke-width="2.5" cx="622.95" cy="-871.63" rx="154.5" ry="154.5"/>
<text xml:space="preserve" text-anchor="middle" x="622.95" y="-863.91" font-family="Helvetica,sans-Serif" font-size="18.00">DSL Input (S&#45;Expression)</text>
</g>
<!-- 1&#45;&gt;12 -->
<g id="edge1" class="edge">
<title>1&#45;&gt;12</title>
<path fill="none" stroke="#000000" stroke-width="2.5" d="M353.78,-540.56C406.73,-605.93 466.4,-679.6 515.98,-740.81"/>
<polygon fill="#000000" stroke="#000000" stroke-width="2.5" points="513.09,-742.8 522.1,-748.37 518.53,-738.39 513.09,-742.8"/>
</g>
<!-- 7 -->
<g id="node6" class="node">
<title>7</title>
<ellipse fill="#e1f5fe" stroke="#01579b" stroke-width="2.5" cx="622.95" cy="-519.63" rx="95.11" ry="95.11"/>
<text xml:space="preserve" text-anchor="middle" x="622.95" y="-511.91" font-family="Helvetica,sans-Serif" font-size="18.00">Data Hydration</text>
</g>
<!-- 1&#45;&gt;7 -->
<g id="edge2" class="edge">
<title>1&#45;&gt;7</title>
<path fill="none" stroke="black" d="M420.93,-446.18C456.11,-459.03 491.24,-471.87 522.05,-483.13"/>
<polygon fill="black" stroke="black" points="531.19,-486.47 520.25,-487.26 527.64,-485.17 521.79,-483.04 521.79,-483.04 521.79,-483.04 527.64,-485.17 523.34,-478.81 531.19,-486.47"/>
</g>
<!-- 2 -->
<g id="node11" class="node">
<title>2</title>
<ellipse fill="#e1f5fe" stroke="#01579b" stroke-width="2.5" cx="622.95" cy="-223.63" rx="122.68" ry="122.68"/>
<text xml:space="preserve" text-anchor="middle" x="622.95" y="-215.91" font-family="Helvetica,sans-Serif" font-size="18.00">Graphviz Rendering</text>
</g>
<!-- 1&#45;&gt;2 -->
<g id="edge3" class="edge">
<title>1&#45;&gt;2</title>
<path fill="none" stroke="black" d="M420.93,-297.09C446.56,-287.73 472.15,-278.37 496.08,-269.63"/>
<polygon fill="black" stroke="black" points="505.44,-266.21 497.59,-273.87 501.88,-267.51 496.04,-269.64 496.04,-269.64 496.04,-269.64 501.88,-267.51 494.5,-265.42 505.44,-266.21"/>
</g>
<!-- 13 -->
<g id="node3" class="node">
<title>13</title>
<ellipse fill="#e1f5fe" stroke="#01579b" stroke-width="1.2" cx="901.95" cy="-899.63" rx="88.72" ry="88.72"/>
<text xml:space="preserve" text-anchor="middle" x="901.95" y="-894.61" font-family="Helvetica,sans-Serif" font-size="12.00">Parser (parse&#45;smart&#45;dsl)</text>
</g>
<!-- 12&#45;&gt;13 -->
<g id="edge4" class="edge">
<title>12&#45;&gt;13</title>
<path fill="none" stroke="black" d="M777.84,-887.19C786.05,-888.02 794.19,-888.84 802.13,-889.65"/>
<polygon fill="black" stroke="black" points="812.02,-890.65 801.61,-894.12 808.25,-890.26 802.07,-889.64 802.07,-889.64 802.07,-889.64 808.25,-890.26 802.52,-885.16 812.02,-890.65"/>
</g>
<!-- 15 -->
<g id="node4" class="node">
<title>15</title>
<ellipse fill="#e1f5fe" stroke="#01579b" stroke-width="0.6" cx="1103.95" cy="-1084.63" rx="77.73" ry="77.73"/>
<text xml:space="preserve" text-anchor="middle" x="1103.95" y="-1080.96" font-family="Helvetica,sans-Serif" font-size="9.00">Cycle Detection (Hash Table)</text>
</g>
<!-- 13&#45;&gt;15 -->
<g id="edge5" class="edge">
<title>13&#45;&gt;15</title>
<path fill="none" stroke="black" stroke-dasharray="5,2" d="M967.88,-959.7C990.43,-980.56 1015.71,-1003.94 1038.24,-1024.78"/>
<polygon fill="black" stroke="black" points="1045.52,-1031.51 1035.12,-1028.02 1042.74,-1028.94 1038.18,-1024.72 1038.18,-1024.72 1038.18,-1024.72 1042.74,-1028.94 1041.23,-1021.42 1045.52,-1031.51"/>
</g>
<!-- 14 -->
<g id="node5" class="node">
<title>14</title>
<ellipse fill="#e1f5fe" stroke="#01579b" stroke-width="0.6" cx="1103.95" cy="-876.63" rx="70.4" ry="70.4"/>
<text xml:space="preserve" text-anchor="middle" x="1103.95" y="-872.96" font-family="Helvetica,sans-Serif" font-size="9.00">Relational List Generation</text>
</g>
<!-- 13&#45;&gt;14 -->
<g id="edge6" class="edge">
<title>13&#45;&gt;14</title>
<path fill="none" stroke="black" d="M990.67,-889.55C1001.42,-888.31 1012.36,-887.05 1022.99,-885.83"/>
<polygon fill="black" stroke="black" points="1032.72,-884.71 1023.3,-890.32 1028.96,-885.14 1022.78,-885.85 1022.78,-885.85 1022.78,-885.85 1028.96,-885.14 1022.27,-881.38 1032.72,-884.71"/>
</g>
<!-- 10 -->
<g id="node7" class="node">
<title>10</title>
<ellipse fill="#e1f5fe" stroke="#01579b" stroke-width="1.2" cx="901.95" cy="-656.63" rx="87.34" ry="87.34"/>
<text xml:space="preserve" text-anchor="middle" x="901.95" y="-651.61" font-family="Helvetica,sans-Serif" font-size="12.00">BFS (calcola&#45;gerarchia)</text>
</g>
<!-- 7&#45;&gt;10 -->
<g id="edge7" class="edge">
<title>7&#45;&gt;10</title>
<path fill="none" stroke="black" d="M709.32,-561.86C742.31,-578.17 780.03,-596.83 813.24,-613.25"/>
<polygon fill="black" stroke="black" points="821.84,-617.51 810.88,-617.11 818.45,-615.83 812.87,-613.07 812.87,-613.07 812.87,-613.07 818.45,-615.83 814.87,-609.04 821.84,-617.51"/>
</g>
<!-- 8 -->
<g id="node9" class="node">
<title>8</title>
<ellipse fill="#e1f5fe" stroke="#01579b" stroke-width="1.2" cx="901.95" cy="-447.63" rx="61.19" ry="61.19"/>
<text xml:space="preserve" text-anchor="middle" x="901.95" y="-442.61" font-family="Helvetica,sans-Serif" font-size="12.00">Object Mapping</text>
</g>
<!-- 7&#45;&gt;8 -->
<g id="edge8" class="edge">
<title>7&#45;&gt;8</title>
<path fill="none" stroke="black" d="M716.19,-495.66C753.84,-485.87 796.65,-474.75 831.57,-465.67"/>
<polygon fill="black" stroke="black" points="840.96,-463.23 832.41,-470.1 837.3,-464.18 831.28,-465.74 831.28,-465.74 831.28,-465.74 837.3,-464.18 830.15,-461.39 840.96,-463.23"/>
</g>
<!-- 11 -->
<g id="node8" class="node">
<title>11</title>
<ellipse fill="#e1f5fe" stroke="#01579b" stroke-width="0.6" cx="1103.95" cy="-656.63" rx="70.83" ry="70.83"/>
<text xml:space="preserve" text-anchor="middle" x="1103.95" y="-652.96" font-family="Helvetica,sans-Serif" font-size="9.00">Depth Assignment (Livelli)</text>
</g>
<!-- 10&#45;&gt;11 -->
<g id="edge9" class="edge">
<title>10&#45;&gt;11</title>
<path fill="none" stroke="black" d="M989.8,-656.63C1000.52,-656.63 1011.44,-656.63 1022.07,-656.63"/>
<polygon fill="black" stroke="black" points="1031.79,-656.63 1021.79,-661.13 1028.01,-656.63 1021.79,-656.63 1021.79,-656.63 1021.79,-656.63 1028.01,-656.63 1021.79,-652.13 1031.79,-656.63"/>
</g>
<!-- 9 -->
<g id="node10" class="node">
<title>9</title>
<ellipse fill="#e1f5fe" stroke="#01579b" stroke-width="0.6" cx="1103.95" cy="-452.63" rx="63.07" ry="63.07"/>
<text xml:space="preserve" text-anchor="middle" x="1103.95" y="-448.96" font-family="Helvetica,sans-Serif" font-size="9.00">nodo&#45;mappa instances</text>
</g>
<!-- 8&#45;&gt;9 -->
<g id="edge10" class="edge">
<title>8&#45;&gt;9</title>
<path fill="none" stroke="black" d="M963.5,-449.15C984.35,-449.67 1007.93,-450.26 1029.69,-450.8"/>
<polygon fill="black" stroke="black" points="1039.66,-451.05 1029.55,-455.3 1035.88,-450.96 1029.66,-450.8 1029.66,-450.8 1029.66,-450.8 1035.88,-450.96 1029.77,-446.3 1039.66,-451.05"/>
</g>
<!-- 5 -->
<g id="node12" class="node">
<title>5</title>
<ellipse fill="#e1f5fe" stroke="#01579b" stroke-width="1.2" cx="901.95" cy="-268.63" rx="56.6" ry="56.6"/>
<text xml:space="preserve" text-anchor="middle" x="901.95" y="-263.61" font-family="Helvetica,sans-Serif" font-size="12.00">cl&#45;dot Protocol</text>
</g>
<!-- 2&#45;&gt;5 -->
<g id="edge11" class="edge">
<title>2&#45;&gt;5</title>
<path fill="none" stroke="black" d="M745.04,-243.31C775.88,-248.32 807.88,-253.52 834.81,-257.89"/>
<polygon fill="black" stroke="black" points="844.44,-259.45 833.84,-262.29 840.7,-258.85 834.57,-257.85 834.57,-257.85 834.57,-257.85 840.7,-258.85 835.29,-253.41 844.44,-259.45"/>
</g>
<!-- 3 -->
<g id="node14" class="node">
<title>3</title>
<ellipse fill="#e1f5fe" stroke="#01579b" stroke-width="1.2" cx="901.95" cy="-105.63" rx="56.6" ry="56.6"/>
<text xml:space="preserve" text-anchor="middle" x="901.95" y="-100.61" font-family="Helvetica,sans-Serif" font-size="12.00">Output Engine</text>
</g>
<!-- 2&#45;&gt;3 -->
<g id="edge12" class="edge">
<title>2&#45;&gt;3</title>
<path fill="none" stroke="#000000" stroke-width="2.5" d="M737.01,-175.47C771.18,-160.92 807.48,-145.45 837.22,-132.78"/>
<polygon fill="#000000" stroke="#000000" stroke-width="2.5" points="838.22,-136.16 846.05,-129.02 835.48,-129.72 838.22,-136.16"/>
</g>
<!-- 6 -->
<g id="node13" class="node">
<title>6</title>
<ellipse fill="#e1f5fe" stroke="#01579b" stroke-width="0.6" cx="1103.95" cy="-263.63" rx="70.4" ry="70.4"/>
<text xml:space="preserve" text-anchor="middle" x="1103.95" y="-259.96" font-family="Helvetica,sans-Serif" font-size="9.00">Style Mapping (Attributes)</text>
</g>
<!-- 5&#45;&gt;6 -->
<g id="edge13" class="edge">
<title>5&#45;&gt;6</title>
<path fill="none" stroke="black" d="M958.93,-267.24C978.61,-266.74 1001.13,-266.18 1022.43,-265.65"/>
<polygon fill="black" stroke="black" points="1032.21,-265.4 1022.33,-270.15 1028.43,-265.5 1022.22,-265.65 1022.22,-265.65 1022.22,-265.65 1028.43,-265.5 1022.11,-261.15 1032.21,-265.4"/>
</g>
<!-- 4 -->
<g id="node15" class="node">
<title>4</title>
<ellipse fill="#e1f5fe" stroke="#01579b" stroke-width="0.6" cx="1103.95" cy="-55.63" rx="44.11" ry="44.11"/>
<text xml:space="preserve" text-anchor="middle" x="1103.95" y="-51.96" font-family="Helvetica,sans-Serif" font-size="9.00">dot Executable</text>
</g>
<!-- 3&#45;&gt;4 -->
<g id="edge14" class="edge">
<title>3&#45;&gt;4</title>
<path fill="none" stroke="black" d="M957.34,-92.04C986.26,-84.81 1021.66,-75.96 1050.32,-68.79"/>
<polygon fill="black" stroke="black" points="1059.76,-66.43 1051.15,-73.22 1056.09,-67.35 1050.06,-68.86 1050.06,-68.86 1050.06,-68.86 1056.09,-67.35 1048.97,-64.49 1059.76,-66.43"/>
</g>
<!-- 4&#45;&gt;1 -->
<g id="edge15" class="edge">
<title>4&#45;&gt;1</title>
<path fill="none" stroke="black" stroke-dasharray="5,2" d="M1060.75,-46.5C953.95,-25.69 667.31,15.55 468.45,-91.63 421.42,-116.98 378.79,-154.69 342.53,-194.28"/>
</g>
</g>
</svg>
