<?xml version="1.0" encoding="UTF-8" standalone="no"?>
<!DOCTYPE svg PUBLIC "-//W3C//DTD SVG 1.1//EN"
 "http://www.w3.org/Graphics/SVG/1.1/DTD/svg11.dtd">
<!-- Generated by graphviz version 14.1.2 (0)
 -->
<!-- Pages: 1 -->
<svg width="841pt" height="598pt"
 viewBox="0.00 0.00 841.00 598.00" xmlns="http://www.w3.org/2000/svg" xmlns:xlink="http://www.w3.org/1999/xlink">
<g id="graph0" class="graph" transform="scale(0.331376 0.331376) rotate(0) translate(4 1800.59)">
<polygon fill="white" stroke="none" points="-4,4 -4,-1800.59 2533.65,-1800.59 2533.65,4 -4,4"/>
<!-- 1 -->
<g id="node1" class="node">
<title>1</title>
<ellipse fill="#fdf6e3" stroke="black" stroke-width="6.48" cx="431.65" cy="-898.34" rx="431.87" ry="35.89"/>
<text xml:space="preserve" text-anchor="middle" x="431.65" y="-884.15" font-family="Georgia italic" font-size="37.44">EVOLUZIONE ARCHITETTURALE</text>
</g>
<!-- 8 -->
<g id="node2" class="node">
<title>8</title>
<ellipse fill="#fdf6e3" stroke="black" stroke-width="3.6" cx="1168.65" cy="-1622.34" rx="216.55" ry="26.87"/>
<text xml:space="preserve" text-anchor="middle" x="1168.65" y="-1612.72" font-family="Georgia italic" font-size="25.92">Stato Precedente (Piatto)</text>
</g>
<!-- 1&#45;&gt;8 -->
<g id="edge1" class="edge">
<title>1&#45;&gt;8</title>
<path fill="none" stroke="black" d="M472.17,-937.27C600.84,-1064.01 1006.66,-1463.76 1131.05,-1586.28"/>
<polygon fill="black" stroke="black" points="1137.96,-1593.09 1127.68,-1589.28 1135.26,-1590.44 1130.83,-1586.08 1130.83,-1586.08 1130.83,-1586.08 1135.26,-1590.44 1133.99,-1582.87 1137.96,-1593.09"/>
</g>
<!-- 5 -->
<g id="node5" class="node">
<title>5</title>
<ellipse fill="#fdf6e3" stroke="black" stroke-width="3.6" cx="1168.65" cy="-898.34" rx="232.46" ry="26.87"/>
<text xml:space="preserve" text-anchor="middle" x="1168.65" y="-888.72" font-family="Georgia italic" font-size="25.92">Stato Attuale (Ottimizzato)</text>
</g>
<!-- 1&#45;&gt;5 -->
<g id="edge2" class="edge">
<title>1&#45;&gt;5</title>
<path fill="none" stroke="#000000" stroke-width="2.5" d="M866.58,-898.34C884.94,-898.34 903.07,-898.34 920.78,-898.34"/>
<polygon fill="#000000" stroke="#000000" stroke-width="2.5" points="920.78,-901.84 930.78,-898.34 920.78,-894.84 920.78,-901.84"/>
</g>
<!-- 2 -->
<g id="node8" class="node">
<title>2</title>
<ellipse fill="#fdf6e3" stroke="black" stroke-width="3.6" cx="1168.65" cy="-173.34" rx="153.44" ry="26.87"/>
<text xml:space="preserve" text-anchor="middle" x="1168.65" y="-163.72" font-family="Georgia italic" font-size="25.92">Risultati Ottenuti</text>
</g>
<!-- 1&#45;&gt;2 -->
<g id="edge3" class="edge">
<title>1&#45;&gt;2</title>
<path fill="none" stroke="black" d="M471.91,-859.62C600.43,-732.85 1007.41,-331.41 1131.43,-209.08"/>
<polygon fill="black" stroke="black" points="1138.32,-202.28 1134.36,-212.51 1135.62,-204.94 1131.2,-209.3 1131.2,-209.3 1131.2,-209.3 1135.62,-204.94 1128.04,-206.1 1138.32,-202.28"/>
</g>
<!-- 9 -->
<g id="node3" class="node">
<title>9</title>
<ellipse fill="#fdf6e3" stroke="black" stroke-width="1.73" cx="1730.65" cy="-1622.34" rx="177.31" ry="22.1"/>
<text xml:space="preserve" text-anchor="middle" x="1730.65" y="-1614.82" font-family="Georgia italic" font-size="20.16">DSL Verboso e ridondante</text>
</g>
<!-- 8&#45;&gt;9 -->
<g id="edge4" class="edge">
<title>8&#45;&gt;9</title>
<path fill="none" stroke="black" d="M1386.97,-1622.34C1437.99,-1622.34 1491.93,-1622.34 1541.55,-1622.34"/>
<polygon fill="black" stroke="black" points="1551.51,-1622.34 1541.51,-1626.84 1547.73,-1622.34 1541.51,-1622.34 1541.51,-1622.34 1541.51,-1622.34 1547.73,-1622.34 1541.51,-1617.84 1551.51,-1622.34"/>
</g>
<!-- 10 -->
<g id="node4" class="node">
<title>10</title>
<ellipse fill="#fdf6e3" stroke="black" stroke-width="1.15" cx="2294.65" cy="-1622.34" rx="234.58" ry="20.51"/>
<text xml:space="preserve" text-anchor="middle" x="2294.65" y="-1616.43" font-family="Georgia italic" font-size="17.28">Errori di validazione (Attribute :cluster)</text>
</g>
<!-- 9&#45;&gt;10 -->
<g id="edge5" class="edge">
<title>9&#45;&gt;10</title>
<path fill="none" stroke="black" d="M1908.7,-1622.34C1953.1,-1622.34 2001.53,-1622.34 2048.6,-1622.34"/>
<polygon fill="black" stroke="black" points="2058.35,-1622.34 2048.35,-1626.84 2054.57,-1622.34 2048.35,-1622.34 2048.35,-1622.34 2048.35,-1622.34 2054.57,-1622.34 2048.35,-1617.84 2058.35,-1622.34"/>
</g>
<!-- 6 -->
<g id="node6" class="node">
<title>6</title>
<ellipse fill="#fdf6e3" stroke="black" stroke-width="1.73" cx="1730.65" cy="-898.34" rx="237.76" ry="22.1"/>
<text xml:space="preserve" text-anchor="middle" x="1730.65" y="-890.82" font-family="Georgia italic" font-size="20.16">Raggruppamento logico con :group</text>
</g>
<!-- 5&#45;&gt;6 -->
<g id="edge6" class="edge">
<title>5&#45;&gt;6</title>
<path fill="none" stroke="black" d="M1402.68,-898.34C1428.57,-898.34 1455,-898.34 1481.07,-898.34"/>
<polygon fill="black" stroke="black" points="1490.99,-898.34 1480.99,-902.84 1487.21,-898.34 1480.99,-898.34 1480.99,-898.34 1480.99,-898.34 1487.21,-898.34 1480.99,-893.84 1490.99,-898.34"/>
</g>
<!-- 7 -->
<g id="node7" class="node">
<title>7</title>
<ellipse fill="#fdf6e3" stroke="black" stroke-width="1.15" cx="2294.65" cy="-898.34" rx="185.79" ry="20.51"/>
<text xml:space="preserve" text-anchor="middle" x="2294.65" y="-892.43" font-family="Georgia italic" font-size="17.28">Gerarchia di attributi dinamica</text>
</g>
<!-- 6&#45;&gt;7 -->
<g id="edge7" class="edge">
<title>6&#45;&gt;7</title>
<path fill="none" stroke="black" d="M1969.18,-898.34C2011.94,-898.34 2056.08,-898.34 2097.5,-898.34"/>
<polygon fill="black" stroke="black" points="2107.32,-898.34 2097.32,-902.84 2103.54,-898.34 2097.32,-898.34 2097.32,-898.34 2097.32,-898.34 2103.54,-898.34 2097.32,-893.84 2107.32,-898.34"/>
</g>
<!-- 3 -->
<g id="node9" class="node">
<title>3</title>
<ellipse fill="#fdf6e3" stroke="black" stroke-width="1.73" cx="1730.65" cy="-173.34" rx="257.92" ry="22.1"/>
<text xml:space="preserve" text-anchor="middle" x="1730.65" y="-165.82" font-family="Georgia italic" font-size="20.16">Leggibilità: 60% meno nodi ridondanti</text>
</g>
<!-- 2&#45;&gt;3 -->
<g id="edge8" class="edge">
<title>2&#45;&gt;3</title>
<path fill="none" stroke="black" d="M1323.79,-173.34C1366.36,-173.34 1413.85,-173.34 1460.9,-173.34"/>
<polygon fill="black" stroke="black" points="1470.67,-173.34 1460.67,-177.84 1466.89,-173.34 1460.67,-173.34 1460.67,-173.34 1460.67,-173.34 1466.89,-173.34 1460.67,-168.84 1470.67,-173.34"/>
</g>
<!-- 4 -->
<g id="node10" class="node">
<title>4</title>
<ellipse fill="#fdf6e3" stroke="black" stroke-width="1.15" cx="2294.65" cy="-173.34" rx="217.61" ry="20.51"/>
<text xml:space="preserve" text-anchor="middle" x="2294.65" y="-167.43" font-family="Georgia italic" font-size="17.28">Stabilità: Zero errori di compilazione</text>
</g>
<!-- 3&#45;&gt;4 -->
<g id="edge9" class="edge">
<title>3&#45;&gt;4</title>
<path fill="none" stroke="black" d="M1989.22,-173.34C2014.62,-173.34 2040.29,-173.34 2065.37,-173.34"/>
<polygon fill="black" stroke="black" points="2075.25,-173.34 2065.25,-177.84 2071.47,-173.34 2065.25,-173.34 2065.25,-173.34 2065.25,-173.34 2071.47,-173.34 2065.25,-168.84 2075.25,-173.34"/>
</g>
</g>
</svg>
